<?xml version="1.0" standalone="no"?>
<!DOCTYPE svg PUBLIC "-//W3C//DTD SVG 20010904//EN"
 "http://www.w3.org/TR/2001/REC-SVG-20010904/DTD/svg10.dtd">
<svg version="1.0" xmlns="http://www.w3.org/2000/svg"
 width="980.000000pt" height="980.000000pt" viewBox="0 0 980.000000 980.000000"
 preserveAspectRatio="xMidYMid meet">
<metadata>
Created by potrace 1.11, written by Peter Selinger 2001-2013
</metadata>
<g transform="translate(0.000000,980.000000) scale(0.100000,-0.100000)"
fill="#000000" stroke="none">
<path d="M4500 9789 c-925 -80 -1777 -399 -2513 -942 -364 -268 -741 -643
-1020 -1014 -475 -632 -795 -1398 -916 -2196 -69 -450 -69 -1024 0 -1474 176
-1159 756 -2210 1642 -2975 795 -686 1757 -1088 2822 -1178 155 -13 615 -13
770 0 1040 88 1964 465 2765 1129 148 122 489 463 611 611 664 801 1041 1725
1129 2765 13 155 13 615 0 770 -54 637 -209 1207 -479 1760 -179 367 -379 678
-645 1000 -127 154 -467 494 -621 621 -801 661 -1722 1036 -2760 1124 -139 11
-646 11 -785 -1z m639 -439 c621 -36 1199 -188 1741 -459 1232 -615 2113
-1758 2385 -3096 121 -594 121 -1196 0 -1790 -354 -1738 -1732 -3116 -3470
-3470 -973 -198 -1971 -71 -2850 363 -211 105 -335 175 -500 285 -1424 947
-2180 2597 -1965 4283 257 2010 1847 3598 3859 3855 286 36 524 45 800 29z"/>
<path d="M2884 6799 c-40 -11 -90 -67 -103 -116 -7 -24 -11 -229 -11 -570 l0
-531 116 0 c64 -1 140 -4 170 -8 l54 -6 0 457 0 458 173 -6 c500 -17 967 -145
1379 -379 l108 -61 0 -1308 0 -1308 -102 52 c-305 156 -634 267 -940 317 -160
26 -411 44 -525 37 l-93 -5 0 125 0 125 -62 -7 c-58 -6 -189 5 -252 21 l-26 6
0 -228 c0 -135 5 -245 11 -269 6 -21 25 -53 43 -71 43 -43 93 -55 186 -44 102
12 404 12 515 0 406 -45 830 -198 1248 -450 159 -96 171 -95 333 2 340 205
685 345 1014 411 205 42 327 51 574 43 294 -10 294 -10 336 18 66 44 70 62 70
351 l0 257 -22 -6 c-64 -18 -161 -36 -230 -41 l-78 -7 0 -119 0 -118 -92 6
c-51 3 -163 0 -249 -6 -462 -34 -825 -143 -1321 -399 -5 -2 -8 585 -8 1305 l0
1308 43 24 c494 276 922 400 1450 418 l177 6 0 -451 0 -452 148 0 c81 0 157
-3 170 -6 l22 -6 0 543 c0 327 -4 558 -10 578 -13 46 -65 99 -110 111 -46 13
-454 13 -600 0 -473 -43 -933 -184 -1334 -409 -60 -33 -112 -61 -116 -61 -3 0
-58 29 -121 65 -393 223 -846 360 -1344 405 -135 12 -548 12 -591 -1z"/>
<path d="M2770 5379 c-239 -21 -315 -109 -327 -387 -11 -240 56 -446 194 -593
75 -80 144 -114 262 -131 83 -11 218 -2 317 23 43 11 43 11 50 68 4 31 7 72 8
91 1 32 -2 35 -29 39 l-30 3 35 13 35 12 9 117 c10 132 9 135 -54 137 l-35 1
46 20 c47 19 47 20 51 76 3 31 3 85 0 119 -5 67 -11 73 -81 73 -43 0 -34 10
27 31 l47 16 -3 89 c-3 107 -7 130 -26 137 -31 12 -266 46 -341 49 -44 2 -114
0 -155 -3z"/>
<path d="M6845 5379 c-123 -7 -302 -38 -320 -55 -13 -13 -31 -201 -20 -212 3
-4 32 -16 63 -28 l57 -21 -61 -7 -61 -7 -5 -62 c-3 -34 -3 -88 0 -119 4 -56 5
-57 49 -76 l45 -19 -46 -7 c-53 -8 -51 -1 -40 -163 l7 -91 41 -10 c30 -7 34
-10 16 -11 -51 -3 -54 -11 -40 -104 14 -98 2 -89 140 -113 109 -19 245 -14
325 10 114 35 204 125 280 281 59 122 76 188 82 336 6 139 -11 258 -49 337
-52 110 -204 156 -463 141z"/>
</g>
</svg>
